# xmcd CD database file
#
# Track frame offsets:
#	150
#	21322
#	32944
#	52031
#	66279
#	92526
#	104676
#	122213
#	150857
#	162339
#	173984
#	190796
#	210733
#	236122
#	265269
#	283444
#	303604
#
# Disc length: 4352 seconds
#
# Revision: 0
# Processed by: cddbd v1.4PL0 Copyright (c) Steve Scherf et al.
# Submitted via: CDex 1.50beta10
#
DISCID=fe10fe11
DTITLE=Various Artist - Blue Note: Blue Pacific funk ("Wailin' on the West Coast")
DYEAR=1960
DGENRE=Jazz
TTITLE0=East Dallas special
TTITLE1=Done it again
TTITLE2=This here
TTITLE3=Sack O' woe
TTITLE4=Sad march
TTITLE5=Spanish castles
TTITLE6=Where's it at
TTITLE7=Paco
TTITLE8=Uptight (Everything's alright)
TTITLE9=Pygmy
TTITLE10=Coming to Atlantis
TTITLE11=All blue
TTITLE12=Turkish black
TTITLE13=Soul sisters
TTITLE14=Montgomeryland funk
TTITLE15=Burnin'
TTITLE16=L.A. after dark
EXTD=YEAR: 1960
EXTT0=
EXTT1=
EXTT2=
EXTT3=
EXTT4=
EXTT5=
EXTT6=
EXTT7=
EXTT8=
EXTT9=
EXTT10=
EXTT11=
EXTT12=
EXTT13=
EXTT14=
EXTT15=
EXTT16=
PLAYORDER=
